# Blender v2.83.1 OBJ File: ''
# www.blender.org
mtllib Duck_mesh.mtl
o Mesh_0283
v 0.492474 1.895438 2.868398
v 0.000013 1.845941 3.890519
v -0.329506 1.784336 3.801374
v 0.000013 1.690173 3.819922
v 0.329533 1.784336 3.801374
v 0.000013 1.543376 2.905201
v 0.000013 1.359608 0.431755
v -0.725022 1.320943 0.948096
v 0.000013 2.190517 0.379205
v 0.000013 2.860576 0.645322
v 0.910009 2.820510 1.148321
v 1.115984 2.114609 0.910790
v 1.288063 0.888770 0.912358
v 0.773479 0.862151 -1.654875
v 0.000013 0.862151 -2.250490
v 1.008187 -0.459316 -1.049578
v 1.580277 -0.459316 0.388343
v 1.030541 0.821645 2.150305
v 1.030541 -0.459316 1.826264
v 0.000013 0.821645 2.791277
v 0.000013 -0.459316 2.460272
v -1.030514 -0.459316 1.826264
v 0.000013 -0.892806 0.388343
v 0.000013 -0.459315 -1.645172
v -1.008160 -0.459316 -1.049578
v -1.580251 -0.459316 0.388343
v -1.030514 0.821645 2.150305
v 0.931108 1.282822 1.974295
v 0.000013 2.583878 3.011598
v -1.029030 1.909490 2.682392
v 0.000013 1.297439 2.618822
v -1.310997 2.038805 2.003529
v -1.061442 2.736321 2.091273
v -0.909982 2.820510 1.148321
v 0.000013 3.261194 1.714347
v 0.000013 3.059651 2.609872
v 1.061469 2.736321 2.091273
v 1.311023 2.038805 2.003529
v 1.029057 1.909490 2.682392
v 0.986460 1.320943 1.104282
v 0.000013 2.106976 3.111449
v -0.492447 1.895438 2.868398
v -1.288037 0.888770 0.912358
v -0.773452 0.862151 -1.654875
v -0.931081 1.282822 1.974295
v -1.115958 2.114609 0.910790
vt -0.915100 -1.063500
vt -0.915100 -1.063500
vt -0.915100 -1.063500
vt -0.915100 -1.063500
vt -0.915100 -1.063500
vt -0.915100 -1.063500
vt -0.915100 -1.063500
vt -0.915100 -1.063500
vt 1.837300 -0.258100
vt 1.837300 -0.258100
vt 1.837300 -0.258100
vt 1.837300 -0.258100
vt 1.837300 -0.258100
vt 1.837300 -0.258100
vt 1.837300 -0.258100
vt 1.837300 -0.258100
vt 1.837300 -0.258100
vt 1.837300 -0.258100
vt 1.837300 -0.258100
vt 1.837300 -0.258100
vt 1.837300 -0.258100
vt 1.837300 -0.258100
vt 1.837300 -0.258100
vt 1.837300 -0.258100
vt 1.837300 -0.258100
vt 1.837300 -0.258100
vt 1.837300 -0.258100
vt 1.837300 -0.258100
vt 1.837300 -0.258100
vt 1.837300 -0.258100
vt 1.837300 -0.258100
vt 1.837300 -0.258100
vt 1.837300 -0.258100
vt 1.837300 -0.258100
vt 1.837300 -0.258100
vt 0.011300 -0.340100
vt 0.265100 -0.676200
vt -0.128000 -0.736400
vt 0.343200 -0.907500
vt 0.498100 -0.834300
vt 0.527900 -0.614300
vt 0.951200 -0.567300
vt 0.483400 -0.392900
vt 0.845200 -0.328500
vt 0.571700 0.029400
vt 0.170100 -0.136900
vt 0.483400 -0.392900
vt 0.845200 -0.328500
vt 0.951200 -0.567300
vt 0.527900 -0.614300
vt 0.498100 -0.834300
vt 0.265100 -0.676200
vt 0.671500 -0.941400
vt 1.125000 -0.923800
vt 1.197000 -0.558200
vt -0.128000 -0.736400
vt 1.837300 -0.258100
vt 1.837300 -0.258100
vt 1.837300 -0.258100
vt 1.837300 -0.258100
vt 1.837300 -0.258100
vt 1.837300 -0.258100
vt 1.837300 -0.258100
vt 1.837300 -0.258100
vt 0.671500 -0.941400
vt 1.197000 -0.558200
vt 1.125000 -0.923800
vn 0.5052 -0.2541 0.8247
vn 0.0000 0.6664 0.7455
vn 0.0000 0.4607 0.8875
vn -0.5052 -0.2541 0.8247
vn -0.8485 -0.0436 0.5273
vn 0.0000 -0.8537 0.5207
vn 0.8485 -0.0436 0.5273
vn 0.0000 -0.8903 0.4553
vn -0.0069 0.7280 -0.6855
vn -0.7412 0.2868 -0.6069
vn 0.0012 0.1244 -0.9922
vn -0.8082 0.0079 -0.5888
vn -0.6384 0.6612 -0.3940
vn 0.0000 0.6612 -0.7502
vn 0.0000 0.9996 -0.0281
vn 0.6384 0.6612 -0.3940
vn 0.7996 0.0388 -0.5992
vn 0.8743 0.2800 -0.3965
vn 0.8798 0.4672 -0.0873
vn 0.6882 0.4950 -0.5305
vn 0.0000 0.3887 -0.9214
vn 0.6967 -0.5721 -0.4327
vn 0.8877 -0.4531 -0.0820
vn 0.7804 0.1118 0.6152
vn 0.6168 -0.6218 0.4827
vn 0.0000 0.0445 0.9990
vn 0.0000 -0.6439 0.7650
vn -0.6168 -0.6218 0.4827
vn 0.0000 -1.0000 -0.0016
vn 0.0000 -0.7129 -0.7012
vn -0.6426 -0.6117 -0.4613
vn -0.8731 -0.4865 -0.0307
vn -0.7804 0.1118 0.6152
vn 0.0000 -0.2838 0.9589
vn 0.9133 -0.0783 0.3995
vn 0.0000 0.4463 0.8949
vn -0.6848 -0.1596 0.7110
vn -0.9301 -0.0740 0.3598
vn -0.9946 -0.0548 0.0880
vn -0.7375 0.6227 0.2613
vn 0.0000 0.8332 0.5530
vn 0.7375 0.6227 0.2613
vn 0.9946 -0.0548 0.0880
vn 0.6848 -0.1596 0.7110
vn -0.8531 0.5200 -0.0425
vn -0.6696 0.5028 -0.5466
usemtl mat0
s 1
f 1/1/1 41/2/2 2/3/3
f 41/2/2 42/4/4 2/3/3
f 2/3/3 42/4/4 3/5/5
f 42/4/4 4/6/6 3/5/5
f 3/5/5 4/6/6 2/3/3
f 4/6/6 5/7/7 2/3/3
f 2/3/3 5/7/7 1/1/1
f 5/7/7 4/6/6 1/1/1
f 1/1/1 4/6/6 6/8/8
f 4/6/6 42/4/4 6/8/8
f 7/9/9 8/10/10 9/11/11
f 8/10/10 46/12/12 9/11/11
f 46/12/12 34/13/13 9/11/11
f 9/11/11 34/13/13 10/14/14
f 34/13/13 35/15/15 10/14/14
f 35/15/15 11/16/16 10/14/14
f 10/14/14 11/16/16 9/11/11
f 11/16/16 12/17/17 9/11/11
f 12/17/17 40/18/18 9/11/11
f 9/11/11 40/18/18 7/9/9
f 40/18/18 13/19/19 7/9/9
f 13/19/19 14/20/20 7/9/9
f 7/9/9 14/20/20 15/21/21
f 15/21/21 14/20/20 16/22/22
f 14/20/20 13/19/19 16/22/22
f 16/22/22 13/19/19 17/23/23
f 13/19/19 18/24/24 17/23/23
f 17/23/23 18/24/24 19/25/25
f 18/24/24 20/26/26 19/25/25
f 19/25/25 20/26/26 21/27/27
f 20/26/26 22/28/28 21/27/27
f 22/28/28 23/29/29 21/27/27
f 21/27/27 23/29/29 19/25/25
f 23/29/29 17/23/23 19/25/25
f 17/23/23 23/29/29 16/22/22
f 23/29/29 24/30/30 16/22/22
f 16/22/22 24/30/30 15/21/21
f 15/21/21 24/30/30 25/31/31
f 24/30/30 23/29/29 25/31/31
f 25/31/31 23/29/29 26/32/32
f 23/29/29 22/28/28 26/32/32
f 26/32/32 22/28/28 27/33/33
f 22/28/28 20/26/26 27/33/33
f 27/33/33 20/26/26 31/34/34
f 20/26/26 18/24/24 31/34/34
f 31/34/34 18/24/24 28/35/35
f 18/24/24 13/19/19 28/35/35
f 28/35/35 13/19/19 40/18/18
f 29/36/36 30/37/37 42/38/4
f 42/38/4 30/37/37 31/39/34
f 31/39/34 30/37/37 45/40/38
f 30/37/37 32/41/39 45/40/38
f 45/40/38 32/41/39 46/42/12
f 32/41/39 33/43/40 46/42/12
f 46/42/12 33/43/40 34/44/13
f 34/44/13 33/43/40 35/45/15
f 33/43/40 36/46/41 35/45/15
f 36/46/41 37/47/42 35/45/15
f 35/45/15 37/47/42 11/48/16
f 11/48/16 37/47/42 12/49/17
f 37/47/42 38/50/43 12/49/17
f 12/49/17 38/50/43 28/51/35
f 28/51/35 38/50/43 39/52/44
f 38/50/43 37/47/42 39/52/44
f 39/52/44 37/47/42 29/36/36
f 37/47/42 36/46/41 29/36/36
f 36/46/41 33/43/40 29/36/36
f 29/36/36 33/43/40 30/37/37
f 33/43/40 32/41/39 30/37/37
f 28/53/35 40/54/18 12/55/17
f 28/51/35 39/52/44 31/39/34
f 31/39/34 39/52/44 1/56/1
f 39/52/44 29/36/36 1/56/1
f 1/57/1 29/58/36 41/59/2
f 29/58/36 42/60/4 41/59/2
f 42/60/4 31/34/34 6/61/8
f 6/61/8 31/34/34 1/57/1
f 31/34/34 45/62/38 27/33/33
f 45/62/38 43/63/45 27/33/33
f 27/33/33 43/63/45 26/32/32
f 43/63/45 44/64/46 26/32/32
f 26/32/32 44/64/46 25/31/31
f 44/64/46 15/21/21 25/31/31
f 15/21/21 44/64/46 7/9/9
f 44/64/46 43/63/45 7/9/9
f 7/9/9 43/63/45 8/10/10
f 43/63/45 45/62/38 8/10/10
f 45/65/38 46/66/12 8/67/10
