# Blender 4.3.2
# www.blender.org
mtllib untitled.mtl
o uploads_files_2619168_BOOK+FINAL
v 4.488001 0.352743 7.249087
v 4.488001 0.352742 -7.199817
v 4.488001 -0.492703 -7.199817
v 4.488001 -0.492702 7.249087
v 4.488001 0.442664 7.249087
v 4.488001 0.442663 -7.199817
v 4.488001 -0.582624 -7.199817
v 4.488001 -0.582623 7.249087
v -4.522318 0.442664 7.249087
v -4.627775 0.414407 7.249087
v -4.704975 0.337207 7.249087
v -4.733232 0.231751 7.249087
v -4.733232 0.231750 -7.199817
v -4.704975 0.337206 -7.199817
v -4.627775 0.414406 -7.199817
v -4.522318 0.442663 -7.199817
v -4.733232 -0.371710 7.249087
v -4.704975 -0.477166 7.249087
v -4.627775 -0.554366 7.249087
v -4.522318 -0.582623 7.249087
v -4.522318 -0.582624 -7.199817
v -4.627775 -0.554367 -7.199817
v -4.704975 -0.477167 -7.199817
v -4.733232 -0.371711 -7.199817
v -4.520055 0.324486 7.249087
v -4.597255 0.247286 7.249087
v -4.625513 0.141830 7.249087
v -4.414599 0.352743 7.249087
v -4.597255 -0.387245 7.249087
v -4.520055 -0.464445 7.249087
v -4.414599 -0.492702 7.249087
v -4.625513 -0.281789 7.249087
v -4.520055 -0.464446 -7.199817
v -4.597255 -0.387246 -7.199817
v -4.625513 -0.281790 -7.199817
v -4.414599 -0.492703 -7.199817
v -4.597255 0.247285 -7.199817
v -4.520055 0.324485 -7.199817
v -4.414599 0.352742 -7.199817
v -4.625513 0.141829 -7.199817
v 4.584017 0.352743 7.355995
v 4.590375 0.355376 7.362351
v 4.593009 0.361734 7.364985
v 4.593009 0.361733 -7.316027
v 4.590375 0.355375 -7.313396
v 4.584017 0.352742 -7.307036
v 4.593009 0.433673 7.364985
v 4.590375 0.440030 7.362351
v 4.584017 0.442664 7.355995
v 4.584017 0.442663 -7.307036
v 4.590375 0.440029 -7.313396
v 4.593009 0.433672 -7.316027
v 4.584017 -0.492703 -7.307036
v 4.590375 -0.495337 -7.313396
v 4.593009 -0.501694 -7.316027
v 4.593009 -0.501693 7.364985
v 4.590375 -0.495336 7.362351
v 4.584017 -0.492702 7.355995
v 4.584017 -0.582623 7.355995
v 4.590375 -0.579990 7.362351
v 4.593009 -0.573632 7.364985
v 4.593009 -0.573633 -7.316027
v 4.590375 -0.579991 -7.313396
v 4.584017 -0.582624 -7.307036
v -4.521924 0.442664 7.356607
v -4.521582 0.440029 7.362961
v -4.520798 0.433667 7.365593
v -4.627578 0.414354 7.356614
v -4.626205 0.411992 7.362968
v -4.622910 0.406292 7.365601
v -4.704922 0.337010 7.356621
v -4.702560 0.335637 7.362975
v -4.696863 0.332344 7.365605
v -4.724241 0.230140 7.365606
v -4.730599 0.230987 7.362974
v -4.733232 0.231357 7.356616
v -4.733232 0.231356 -7.307036
v -4.730599 0.230986 -7.313396
v -4.724241 0.230139 -7.316027
v -4.704922 0.337009 -7.307047
v -4.702560 0.335636 -7.313396
v -4.696860 0.332341 -7.316027
v -4.627578 0.414353 -7.307047
v -4.626205 0.411992 -7.313396
v -4.622912 0.406294 -7.316027
v -4.520709 0.433672 -7.316027
v -4.521555 0.440030 -7.313396
v -4.521925 0.442663 -7.307036
v -4.415357 0.361734 7.365592
v -4.414528 0.355377 7.362958
v -4.414205 0.352743 7.356602
v -4.524499 0.332494 7.365600
v -4.521212 0.326793 7.362965
v -4.519859 0.324433 7.356605
v -4.605266 0.251731 7.365605
v -4.599563 0.248442 7.362968
v -4.597203 0.247089 7.356606
v -4.625513 0.141436 7.356616
v -4.628147 0.141759 7.362974
v -4.634504 0.142587 7.365608
v -4.414206 -0.492702 7.356596
v -4.414556 -0.495334 7.362957
v -4.415447 -0.501688 7.365592
v -4.519859 -0.464392 7.356605
v -4.521212 -0.466752 7.362965
v -4.524499 -0.472453 7.365600
v -4.597203 -0.387049 7.356606
v -4.599563 -0.388402 7.362968
v -4.605266 -0.391690 7.365605
v -4.634504 -0.282546 7.365608
v -4.628147 -0.281718 7.362974
v -4.625513 -0.281395 7.356616
v -4.520709 -0.573632 7.365593
v -4.521555 -0.579990 7.362959
v -4.521924 -0.582623 7.356603
v -4.622910 -0.546251 7.365601
v -4.626205 -0.551951 7.362968
v -4.627578 -0.554313 7.356614
v -4.696863 -0.472303 7.365605
v -4.702560 -0.475596 7.362975
v -4.704922 -0.476969 7.356621
v -4.733232 -0.371316 7.356616
v -4.730599 -0.370946 7.362974
v -4.724241 -0.370099 7.365606
v -4.625513 -0.281396 -7.307036
v -4.628147 -0.281719 -7.313396
v -4.634504 -0.282547 -7.316027
v -4.597203 -0.387050 -7.307036
v -4.599563 -0.388402 -7.313396
v -4.605263 -0.391689 -7.316027
v -4.519859 -0.464393 -7.307027
v -4.521212 -0.466754 -7.313396
v -4.524500 -0.472457 -7.316027
v -4.415357 -0.501694 -7.316027
v -4.414529 -0.495337 -7.313396
v -4.414206 -0.492703 -7.307036
v -4.724241 -0.370100 -7.316027
v -4.730599 -0.370947 -7.313396
v -4.733232 -0.371317 -7.307036
v -4.696860 -0.472302 -7.316027
v -4.702560 -0.475597 -7.313396
v -4.704922 -0.476971 -7.307047
v -4.622912 -0.546255 -7.316027
v -4.626205 -0.551953 -7.313396
v -4.627578 -0.554314 -7.307047
v -4.521925 -0.582624 -7.307047
v -4.521582 -0.579989 -7.313396
v -4.520798 -0.573627 -7.316027
v -4.634504 0.142586 -7.316027
v -4.628147 0.141758 -7.313396
v -4.625513 0.141435 -7.307036
v -4.605263 0.251728 -7.316027
v -4.599563 0.248441 -7.313396
v -4.597203 0.247088 -7.307036
v -4.524500 0.332496 -7.316027
v -4.521212 0.326793 -7.313396
v -4.519859 0.324432 -7.307027
v -4.414206 0.352742 -7.307036
v -4.414556 0.355374 -7.313396
v -4.415447 0.361727 -7.316027
vn 1.0000 -0.0000 -0.0000
vn -0.9992 0.0399 -0.0000
vn -0.8660 0.5000 -0.0000
vn -0.8660 0.5000 -0.0002
vn -0.5000 0.8660 -0.0000
vn -0.5000 0.8660 -0.0002
vn -0.0031 1.0000 -0.0000
vn -0.0031 -1.0000 -0.0000
vn -0.5000 -0.8660 -0.0000
vn -0.5000 -0.8660 -0.0002
vn -0.8660 -0.5000 0.0002
vn -0.8660 -0.5000 -0.0000
vn -0.9992 -0.0399 -0.0000
vn -0.0000 1.0000 -0.0000
vn -0.0000 -1.0000 -0.0000
vn -0.0000 -0.0000 1.0000
vn -0.0000 -0.0000 -1.0000
vn 0.9997 -0.0264 -0.0000
vn 0.9239 -0.3827 -0.0000
vn 0.9997 -0.0263 -0.0000
vn 0.3826 -0.9239 -0.0000
vn 0.0411 -0.9988 0.0252
vn 0.0411 -0.9988 -0.0252
vn 0.0409 0.9988 0.0254
vn 0.3827 0.9239 -0.0000
vn 0.0409 0.9988 -0.0254
vn 0.9239 0.3827 -0.0000
vn 0.9997 0.0263 -0.0000
vn 0.9997 0.0264 -0.0000
vn 0.0411 0.9988 -0.0252
vn 0.0411 0.9988 0.0252
vn 0.0409 -0.9988 0.0254
vn 0.0409 -0.9988 -0.0254
vn -0.0237 0.0138 0.9996
vn -0.3215 0.1853 0.9286
vn -0.3808 0.0150 0.9245
vn -0.0453 0.0018 0.9990
vn -0.7957 0.4591 0.3950
vn -0.8659 0.4996 0.0237
vn -0.9990 0.0397 0.0225
vn -0.9226 0.0366 0.3841
vn -0.0141 0.0244 -0.9996
vn -0.1855 0.3213 -0.9286
vn -0.0011 0.3825 -0.9240
vn -0.0002 0.0797 -0.9968
vn -0.4591 0.7957 -0.3951
vn -0.4997 0.8659 -0.0238
vn -0.0031 0.9997 -0.0226
vn -0.0028 0.9238 -0.3828
vn 0.8659 -0.4996 0.0243
vn 0.7962 -0.4599 0.3932
vn 0.9218 -0.0494 0.3844
vn 0.9983 -0.0532 0.0238
vn 0.3220 -0.1859 0.9283
vn 0.0137 -0.0079 0.9999
vn 0.0162 -0.0009 0.9999
vn 0.3804 -0.0207 0.9246
vn 0.0137 0.0079 0.9999
vn 0.3220 0.1859 0.9283
vn 0.3804 0.0207 0.9246
vn 0.0163 0.0009 0.9999
vn 0.7964 0.4596 0.3932
vn 0.8659 0.4997 0.0243
vn 0.9983 0.0533 0.0238
vn 0.9218 0.0494 0.3844
vn -0.8659 -0.4997 0.0237
vn -0.7957 -0.4591 0.3950
vn -0.9225 -0.0366 0.3841
vn -0.9990 -0.0397 0.0226
vn -0.3216 -0.1852 0.9286
vn -0.0238 -0.0137 0.9996
vn -0.0453 -0.0018 0.9990
vn -0.3808 -0.0150 0.9245
vn 0.0085 0.0147 -0.9999
vn 0.1862 0.3218 -0.9283
vn 0.0012 0.3826 -0.9239
vn 0.0001 0.0199 -0.9998
vn 0.4596 0.7964 -0.3930
vn 0.4997 0.8659 -0.0243
vn 0.0032 0.9997 -0.0240
vn 0.0029 0.9238 -0.3828
vn -0.4997 -0.8659 -0.0238
vn -0.4592 -0.7958 -0.3947
vn -0.0028 -0.9238 -0.3830
vn -0.0031 -0.9997 -0.0226
vn -0.1853 -0.3217 -0.9286
vn -0.0140 -0.0245 -0.9996
vn -0.0003 -0.0794 -0.9968
vn -0.0011 -0.3823 -0.9240
vn 0.4997 -0.8658 -0.0244
vn 0.4598 -0.7961 -0.3934
vn 0.0029 -0.9239 -0.3826
vn 0.0032 -0.9997 -0.0240
vn 0.1862 -0.3216 -0.9284
vn 0.0085 -0.0148 -0.9999
vn 0.0001 -0.0198 -0.9998
vn 0.0012 -0.3827 -0.9239
vn 0.0032 1.0000 -0.0005
vn 0.5002 0.8659 -0.0013
vn 0.4997 0.8659 0.0243
vn 0.0032 0.9997 0.0240
vn 0.8659 0.5002 -0.0013
vn 0.9986 0.0536 -0.0002
vn 0.9986 0.0536 0.0005
vn 0.8659 0.5002 0.0013
vn 0.8659 0.4997 -0.0243
vn 0.9983 0.0532 -0.0238
vn 0.5002 0.8659 0.0013
vn 0.0032 1.0000 -0.0000
vn 0.0001 0.0265 0.9996
vn -0.0002 0.0794 0.9968
vn 0.0001 -0.0199 0.9998
vn 0.0001 -0.0262 0.9997
vn 0.0002 0.0198 0.9998
vn -0.0002 -0.0797 0.9968
vn 0.0001 -0.0265 0.9996
vn 0.0001 0.0262 0.9997
vn 0.0162 0.0009 -0.9999
vn -0.0453 -0.0018 -0.9990
vn -0.0453 0.0018 -0.9990
vn 0.0162 -0.0009 -0.9999
vn -0.0000 0.0264 -0.9997
vn -0.0000 -0.0262 -0.9997
vn -0.0000 0.0262 -0.9997
vn -0.0000 -0.0264 -0.9997
vn -0.0031 0.9997 0.0226
vn 0.0031 -0.9997 0.0239
vn 0.0032 -1.0000 -0.0000
vn -0.0031 -0.9997 0.0226
vn -0.9990 0.0397 -0.0227
vn -0.9990 -0.0397 -0.0227
vn 0.9983 -0.0532 -0.0238
vn 0.9986 -0.0536 0.0002
vn 0.0032 -1.0000 0.0005
vn 0.9986 -0.0536 -0.0005
vn -0.4997 0.8659 0.0237
vn -0.8659 0.4996 -0.0238
vn -0.0140 0.0245 0.9996
vn 0.0086 -0.0147 0.9999
vn 0.8659 -0.5002 -0.0013
vn 0.5002 -0.8659 -0.0013
vn 0.4997 -0.8659 0.0243
vn 0.0086 0.0147 0.9999
vn -0.0141 -0.0245 0.9996
vn -0.4997 -0.8659 0.0237
vn 0.0137 0.0079 -0.9999
vn -0.0238 -0.0137 -0.9996
vn -0.8659 -0.4997 -0.0237
vn -0.0238 0.0137 -0.9996
vn 0.0137 -0.0079 -0.9999
vn 0.5002 -0.8659 0.0013
vn 0.8659 -0.5002 0.0013
vn 0.8659 -0.4997 -0.0243
vn 0.0001 0.3825 0.9240
vn -0.0011 0.3824 0.9240
vn -0.0000 0.9238 0.3829
vn -0.0028 0.9237 0.3830
vn -0.1852 0.3218 0.9285
vn -0.4592 0.7957 0.3949
vn -0.3807 0.0150 -0.9246
vn -0.3212 0.1855 -0.9286
vn -0.9225 0.0366 -0.3842
vn -0.7957 0.4591 -0.3952
vn -0.0000 0.9239 -0.3826
vn -0.0000 0.3823 -0.9240
vn -0.0000 -0.9239 0.3827
vn 0.0029 -0.9238 0.3829
vn 0.0001 -0.3827 0.9239
vn 0.0013 -0.3825 0.9239
vn 0.4596 -0.7963 0.3932
vn 0.1860 -0.3219 0.9283
vn 0.0001 0.3829 0.9238
vn 0.0013 0.3828 0.9238
vn -0.0000 0.9239 0.3826
vn 0.0030 0.9239 0.3826
vn 0.1863 0.3216 0.9284
vn 0.4596 0.7963 0.3933
vn -0.0028 -0.9238 0.3828
vn -0.0011 -0.3826 0.9239
vn -0.4592 -0.7957 0.3950
vn -0.1851 -0.3217 0.9286
vn 0.3803 0.0207 -0.9246
vn 0.3216 0.1862 -0.9284
vn 0.9218 0.0494 -0.3844
vn 0.7962 0.4598 -0.3932
vn -0.0000 0.3828 -0.9238
vn -0.9225 -0.0366 -0.3842
vn -0.3807 -0.0150 -0.9246
vn -0.7959 -0.4588 -0.3949
vn -0.3212 -0.1855 -0.9287
vn -0.0000 -0.3822 -0.9241
vn -0.0000 -0.9238 -0.3829
vn 0.9218 -0.0494 -0.3844
vn 0.3802 -0.0207 -0.9247
vn 0.7964 -0.4596 -0.3931
vn 0.3216 -0.1862 -0.9284
vn -0.0000 -0.3829 -0.9238
vn -0.0000 -0.9240 -0.3824
vt 0.817977 0.724124
vt 0.775721 0.724124
vt 0.775721 0.001953
vt 0.817977 0.001953
vt 0.752250 0.518343
vt 0.752208 0.523812
vt 0.019140 0.520713
vt 0.019140 0.515223
vt 0.752186 0.529278
vt 0.019123 0.526200
vt 0.752178 0.534742
vt 0.019091 0.531685
vt 0.752447 0.471612
vt 0.752408 0.477076
vt 0.019354 0.473792
vt 0.019369 0.468308
vt 0.752384 0.482542
vt 0.019325 0.479279
vt 0.752381 0.488010
vt 0.019279 0.484769
vt 0.024496 0.986777
vt 0.746856 0.986155
vt 0.028700 0.013260
vt 0.751028 0.020190
vt 0.914518 0.003365
vt 0.918376 0.007224
vt 0.919788 0.012495
vt 0.919788 0.457456
vt 0.877532 0.457456
vt 0.877532 0.012495
vt 0.878945 0.007224
vt 0.882803 0.003365
vt 0.888074 0.001953
vt 0.909247 0.001953
vt 0.863612 0.003365
vt 0.867471 0.007224
vt 0.868883 0.012495
vt 0.868883 0.457456
vt 0.826627 0.457456
vt 0.826627 0.012495
vt 0.828039 0.007224
vt 0.831897 0.003365
vt 0.837168 0.001953
vt 0.858341 0.001953
vt 0.754576 0.994413
vt 0.754675 0.994647
vt 0.016696 0.995304
vt 0.016793 0.995070
vt 0.754658 0.994822
vt 0.016714 0.995478
vt 0.752159 0.990990
vt 0.752488 0.991331
vt 0.018866 0.991973
vt 0.019194 0.991631
vt 0.752732 0.991628
vt 0.018623 0.992271
vt 0.021090 0.004897
vt 0.020995 0.004662
vt 0.758920 0.011760
vt 0.758819 0.011993
vt 0.021014 0.004488
vt 0.758905 0.011585
vt 0.756950 0.014768
vt 0.756703 0.015064
vt 0.023114 0.008015
vt 0.022874 0.007714
vt 0.756371 0.015401
vt 0.023439 0.008360
vt 0.757716 0.524302
vt 0.757407 0.524261
vt 0.758249 0.519283
vt 0.758604 0.519324
vt 0.757100 0.524222
vt 0.757894 0.519226
vt 0.013505 0.526465
vt 0.013823 0.526464
vt 0.013252 0.531751
vt 0.012901 0.531794
vt 0.014141 0.526462
vt 0.013605 0.531731
vt 0.764113 0.523884
vt 0.763786 0.523857
vt 0.763758 0.515742
vt 0.764108 0.515800
vt 0.763464 0.523830
vt 0.763408 0.515696
vt 0.763562 0.482634
vt 0.763882 0.482612
vt 0.763664 0.490724
vt 0.763310 0.490770
vt 0.764208 0.482589
vt 0.764018 0.490667
vt 0.757243 0.482171
vt 0.757549 0.482135
vt 0.758305 0.487128
vt 0.757946 0.487183
vt 0.757856 0.482098
vt 0.758662 0.487090
vt 0.008658 0.470948
vt 0.008332 0.470923
vt 0.009258 0.462698
vt 0.009607 0.462750
vt 0.007999 0.470898
vt 0.008908 0.462671
vt 0.014367 0.473491
vt 0.014049 0.473486
vt 0.013532 0.468191
vt 0.013884 0.468212
vt 0.013731 0.473482
vt 0.013181 0.468148
vt 0.007757 0.529015
vt 0.008090 0.528991
vt 0.008964 0.537243
vt 0.008614 0.537268
vt 0.008416 0.528967
vt 0.009314 0.537191
vt 0.753830 0.997367
vt 0.017552 0.998047
vt 0.021891 0.001953
vt 0.758116 0.009007
vt 0.768459 0.466136
vt 0.769142 0.474144
vt 0.763779 0.474405
vt 0.762988 0.466229
vt 0.769536 0.482274
vt 0.769535 0.490215
vt 0.002067 0.486803
vt 0.002153 0.478765
vt 0.007462 0.479146
vt 0.007564 0.487301
vt 0.002658 0.470547
vt 0.003456 0.462447
vt 0.758384 0.534809
vt 0.761971 0.540150
vt 0.762287 0.466296
vt 0.758654 0.471596
vt 0.008269 0.487411
vt 0.012918 0.483751
vt 0.012886 0.516179
vt 0.008076 0.512511
vt 0.757680 0.534755
vt 0.762671 0.540218
vt 0.768141 0.540358
vt 0.757949 0.471648
vt 0.013600 0.516082
vt 0.013630 0.483852
vt 0.007373 0.512612
vt 0.001953 0.513059
vt 0.003161 0.537444
vt 0.769536 0.516272
vt 0.757168 0.529536
vt 0.014298 0.521136
vt 0.757806 0.529534
vt 0.762900 0.532011
vt 0.769435 0.524247
vt 0.768924 0.532374
vt 0.763559 0.532057
vt 0.763121 0.474444
vt 0.758013 0.476865
vt 0.757376 0.476856
vt 0.008107 0.479198
vt 0.013846 0.478743
vt 0.014461 0.478825
vt 0.013683 0.521208
vt 0.007940 0.520703
vt 0.002416 0.529329
vt 0.001978 0.521099
vt 0.007291 0.520757
vt 0.758032 0.534771
vt 0.757487 0.529536
vt 0.013242 0.516139
vt 0.013989 0.521171
vt 0.762321 0.540196
vt 0.763227 0.532034
vt 0.762638 0.466249
vt 0.763447 0.474425
vt 0.758301 0.471633
vt 0.757695 0.476860
vt 0.007917 0.487362
vt 0.007788 0.479172
vt 0.013274 0.483793
vt 0.014152 0.478785
vt 0.007724 0.512556
vt 0.007617 0.520730
s 1
usemtl lambert4SG
f 3/1/1 2/2/1 1/3/1 4/4/1
f 12/5/2 11/6/3 14/7/4 13/8/2
f 11/6/3 10/9/5 15/10/6 14/7/4
f 10/9/5 9/11/7 16/12/7 15/10/6
f 20/13/8 19/14/9 22/15/10 21/16/8
f 19/14/9 18/17/11 23/18/12 22/15/10
f 18/17/11 17/19/13 24/20/13 23/18/12
f 6/21/14 16/12/7 9/11/7 5/22/14
f 20/13/8 21/16/8 7/23/15 8/24/15
f 12/5/2 13/8/2 24/20/13 17/19/13
f 29/25/16 30/26/16 31/27/16 4/28/16 1/29/16 28/30/16 25/31/16 26/32/16 27/33/16 32/34/16
f 37/35/17 38/36/17 39/37/17 2/38/17 3/39/17 36/40/17 33/41/17 34/42/17 35/43/17 40/44/17
f 43/45/18 42/46/19 45/47/19 44/48/20
f 42/46/21 41/49/22 46/50/23 45/47/21
f 49/51/24 48/52/25 51/53/25 50/54/26
f 48/52/27 47/55/28 52/56/29 51/53/27
f 55/57/29 54/58/27 57/59/27 56/60/28
f 54/58/25 53/61/30 58/62/31 57/59/25
f 61/63/18 60/64/19 63/65/19 62/66/20
f 60/64/21 59/67/32 64/68/33 63/65/21
f 73/69/34 72/70/35 75/71/36 74/72/37
f 72/70/38 71/73/39 76/74/40 75/71/41
f 85/75/42 84/76/43 87/77/44 86/78/45
f 84/76/46 83/79/47 88/80/48 87/77/49
f 97/81/50 96/82/51 99/83/52 98/84/53
f 96/82/54 95/85/55 100/86/56 99/83/57
f 109/87/58 108/88/59 111/89/60 110/90/61
f 108/88/62 107/91/63 112/92/64 111/89/65
f 121/93/66 120/94/67 123/95/68 122/96/69
f 120/94/70 119/97/71 124/98/72 123/95/73
f 133/99/74 132/100/75 135/101/76 134/102/77
f 132/100/78 131/103/79 136/104/80 135/101/81
f 145/105/82 144/106/83 147/107/84 146/108/85
f 144/106/86 143/109/87 148/110/88 147/107/89
f 157/111/90 156/112/91 159/113/92 158/114/93
f 156/112/94 155/115/95 160/116/96 159/113/97
f 43/45/18 44/48/20 52/56/29 47/55/28
f 55/57/29 56/60/28 61/63/18 62/66/20
f 1/117/15 2/118/15 46/50/23 41/49/22
f 6/21/14 5/22/14 49/51/24 50/54/26
f 3/119/14 4/120/14 58/62/31 53/61/30
f 8/24/15 7/23/15 64/68/33 59/67/32
f 31/121/98 30/122/99 104/123/100 101/124/101
f 30/122/99 29/125/102 107/91/63 104/123/100
f 29/125/102 32/126/103 112/92/64 107/91/63
f 35/127/104 34/128/105 128/129/106 125/130/107
f 34/128/105 33/131/108 131/103/79 128/129/106
f 33/131/108 36/132/109 136/104/80 131/103/79
f 47/55/110 67/133/111 89/134/112 43/45/113
f 103/135/114 113/136/115 61/63/116 56/60/117
f 127/137/118 137/138/119 79/139/120 149/140/121
f 160/116/96 86/78/45 52/56/122 44/48/123
f 148/110/88 134/102/77 55/57/124 62/66/125
f 100/86/56 74/72/37 124/98/72 110/90/61
f 5/22/14 9/11/7 65/141/126 49/51/24
f 91/142/127 28/143/128 1/117/15 41/49/22
f 20/13/8 8/24/15 59/67/32 115/144/129
f 4/120/14 31/121/98 101/124/101 58/62/31
f 24/20/13 13/8/2 77/145/130 139/146/131
f 151/147/132 40/148/133 35/127/104 125/130/107
f 16/12/7 6/21/14 50/54/26 88/80/48
f 2/118/15 39/149/134 158/114/93 46/50/23
f 136/104/80 36/132/109 3/119/14 53/61/30
f 7/23/15 21/16/8 146/108/85 64/68/33
f 12/5/2 17/19/13 122/96/69 76/74/40
f 112/92/64 32/126/103 27/150/135 98/84/53
f 11/6/3 12/5/2 76/74/40 71/73/39
f 9/11/7 10/9/5 68/151/136 65/141/126
f 10/9/5 11/6/3 71/73/39 68/151/136
f 15/10/6 16/12/7 88/80/48 83/79/47
f 13/8/2 14/7/4 80/152/137 77/145/130
f 14/7/4 15/10/6 83/79/47 80/152/137
f 73/69/34 74/72/37 100/86/56 95/85/55
f 67/133/111 70/153/138 92/154/139 89/134/112
f 70/153/138 73/69/34 95/85/55 92/154/139
f 27/150/135 26/155/140 97/81/50 98/84/53
f 26/155/140 25/156/141 94/157/142 97/81/50
f 25/156/141 28/143/128 91/142/127 94/157/142
f 109/87/58 110/90/61 124/98/72 119/97/71
f 103/135/114 106/158/143 116/159/144 113/136/115
f 106/158/143 109/87/58 119/97/71 116/159/144
f 17/19/13 18/17/11 121/93/66 122/96/69
f 18/17/11 19/14/9 118/160/145 121/93/66
f 19/14/9 20/13/8 115/144/129 118/160/145
f 133/99/74 134/102/77 148/110/88 143/109/87
f 127/137/118 130/161/146 140/162/147 137/138/119
f 130/161/146 133/99/74 143/109/87 140/162/147
f 21/16/8 22/15/10 145/105/82 146/108/85
f 22/15/10 23/18/12 142/163/148 145/105/82
f 23/18/12 24/20/13 139/146/131 142/163/148
f 85/75/42 86/78/45 160/116/96 155/115/95
f 79/139/120 82/164/149 152/165/150 149/140/121
f 82/164/149 85/75/42 155/115/95 152/165/150
f 39/149/134 38/166/151 157/111/90 158/114/93
f 38/166/151 37/167/152 154/168/153 157/111/90
f 37/167/152 40/148/133 151/147/132 154/168/153
f 47/55/110 48/52/154 66/169/155 67/133/111
f 48/52/156 49/51/24 65/141/126 66/169/157
f 67/133/111 66/169/155 69/170/158 70/153/138
f 66/169/157 65/141/126 68/151/136 69/170/159
f 70/153/138 69/170/158 72/70/35 73/69/34
f 69/170/159 68/151/136 71/73/39 72/70/38
f 79/139/120 78/171/160 81/172/161 82/164/149
f 78/171/162 77/145/130 80/152/137 81/172/163
f 82/164/149 81/172/161 84/76/43 85/75/42
f 81/172/163 80/152/137 83/79/47 84/76/46
f 50/54/26 51/53/164 87/77/49 88/80/48
f 51/53/165 52/56/122 86/78/45 87/77/44
f 41/49/22 42/46/166 90/173/167 91/142/127
f 42/46/168 43/45/113 89/134/112 90/173/169
f 91/142/127 90/173/167 93/174/170 94/157/142
f 90/173/169 89/134/112 92/154/139 93/174/171
f 94/157/142 93/174/170 96/82/51 97/81/50
f 93/174/171 92/154/139 95/85/55 96/82/54
f 56/60/117 57/59/172 102/175/173 103/135/114
f 57/59/174 58/62/31 101/124/101 102/175/175
f 103/135/114 102/175/173 105/176/176 106/158/143
f 102/175/175 101/124/101 104/123/100 105/176/177
f 106/158/143 105/176/176 108/88/59 109/87/58
f 105/176/177 104/123/100 107/91/63 108/88/62
f 98/84/53 99/83/52 111/89/65 112/92/64
f 99/83/57 100/86/56 110/90/61 111/89/60
f 59/67/32 60/64/166 114/177/178 115/144/129
f 60/64/168 61/63/116 113/136/115 114/177/179
f 115/144/129 114/177/178 117/178/180 118/160/145
f 114/177/179 113/136/115 116/159/144 117/178/181
f 118/160/145 117/178/180 120/94/67 121/93/66
f 117/178/181 116/159/144 119/97/71 120/94/70
f 74/72/37 75/71/36 123/95/73 124/98/72
f 75/71/41 76/74/40 122/96/69 123/95/68
f 127/137/118 126/179/182 129/180/183 130/161/146
f 126/179/184 125/130/107 128/129/106 129/180/185
f 130/161/146 129/180/183 132/100/75 133/99/74
f 129/180/185 128/129/106 131/103/79 132/100/78
f 53/61/30 54/58/164 135/101/81 136/104/80
f 54/58/186 55/57/124 134/102/77 135/101/76
f 77/145/130 78/171/162 138/181/187 139/146/131
f 78/171/160 79/139/120 137/138/119 138/181/188
f 139/146/131 138/181/187 141/182/189 142/163/148
f 138/181/188 137/138/119 140/162/147 141/182/190
f 142/163/148 141/182/189 144/106/83 145/105/82
f 141/182/190 140/162/147 143/109/87 144/106/86
f 62/66/125 63/65/191 147/107/89 148/110/88
f 63/65/192 64/68/33 146/108/85 147/107/84
f 125/130/107 126/179/184 150/183/193 151/147/132
f 126/179/182 127/137/118 149/140/121 150/183/194
f 151/147/132 150/183/193 153/184/195 154/168/153
f 150/183/194 149/140/121 152/165/150 153/184/196
f 154/168/153 153/184/195 156/112/91 157/111/90
f 153/184/196 152/165/150 155/115/95 156/112/94
f 44/48/123 45/47/197 159/113/97 160/116/96
f 45/47/198 46/50/23 158/114/93 159/113/92
